<?xml version="1.0" encoding="UTF-8"?>
<svg version="1.1" xmlns="http://www.w3.org/2000/svg" width="500" height="500">
<path d="M0 0 C6.67828179 4.48617403 10.21588174 10.88474442 13.109375 18.25 C14.72113963 27.2758819 13.26550031 34.63949775 10.41015625 43.25390625 C10.05415848 44.36794327 9.69816071 45.48198029 9.33137512 46.629776 C8.35061 49.69384595 7.35765763 52.75368888 6.36170197 55.81284332 C5.28933104 59.12427519 4.23957486 62.44284315 3.18896484 65.76123047 C0.68206722 73.67212924 -1.84313255 81.57709981 -4.37213135 89.48095703 C-6.2447939 95.33385724 -8.11576075 101.18729832 -9.98547935 107.0411396 C-10.61300402 109.00479461 -11.24161567 110.96810217 -11.87031555 112.93138123 C-17.06762504 129.18344244 -22.15573248 145.47029855 -27.265625 161.75 C-26.12262751 161.74585193 -26.12262751 161.74585193 -24.95653915 161.74162006 C-6.37593494 161.67523388 12.20464547 161.6256581 30.78534317 161.59456348 C39.7710014 161.57912491 48.75658024 161.55809323 57.7421875 161.52368164 C65.57824883 161.49368682 73.41425264 161.47440315 81.25036979 161.46773452 C85.39572765 161.46383927 89.540921 161.45474835 93.68622589 161.43280983 C97.59649998 161.41228495 101.50654346 161.40619813 105.4168663 161.41067696 C106.8437895 161.40985885 108.27072127 161.40398914 109.6975975 161.39238358 C120.1546699 161.31157944 131.55815261 161.48462071 140.171875 168.1875 C140.98011719 168.80882812 141.78835938 169.43015625 142.62109375 170.0703125 C143.66716797 170.90175781 143.66716797 170.90175781 144.734375 171.75 C145.641875 172.348125 146.549375 172.94625 147.484375 173.5625 C155.53958529 181.39395445 159.52924446 192.85292567 159.984375 203.875 C159.73599067 218.65386785 152.99205286 228.98473174 142.72851562 239.05859375 C141.75181829 239.99793286 140.77460208 240.93673276 139.796875 241.875 C132.33797117 249.01886566 132.33797117 249.01886566 125.35546875 256.6171875 C119.66007403 263.29419576 113.22355949 269.31348192 106.98632812 275.47753906 C99.38996185 282.90558868 99.38996185 282.90558868 92.234375 290.75 C86.58625559 297.38584473 80.17936109 303.35716179 73.98632812 309.47753906 C66.38996185 316.90558868 66.38996185 316.90558868 59.234375 324.75 C53.58625559 331.38584473 47.17936109 337.35716179 40.98632812 343.47753906 C33.38996185 350.90558868 33.38996185 350.90558868 26.234375 358.75 C20.58625559 365.38584473 14.17936109 371.35716179 7.98632812 377.47753906 C0.38996185 384.90558868 0.38996185 384.90558868 -6.765625 392.75 C-12.41374441 399.38584473 -18.82063891 405.35716179 -25.01367188 411.47753906 C-33.5578175 419.92749693 -33.5578175 419.92749693 -41.60595703 428.84570312 C-44.97868371 432.71555722 -48.59747942 436.34871334 -52.203125 440 C-52.96302734 440.78890625 -53.72292969 441.5778125 -54.50585938 442.390625 C-61.84834723 449.81462638 -69.43590179 454.19018662 -80.078125 455.0625 C-88.98280756 454.80314031 -96.21665745 451.30519102 -102.828125 445.5 C-109.46084105 438.01693574 -112.58248941 430.6196269 -112.49227905 420.556427 C-112.08854839 415.55744009 -110.51230387 410.98540136 -108.94140625 406.24609375 C-108.58540848 405.13205673 -108.22941071 404.01801971 -107.86262512 402.870224 C-106.88186 399.80615405 -105.88890763 396.74631112 -104.89295197 393.68715668 C-103.82058104 390.37572481 -102.77082486 387.05715685 -101.72021484 383.73876953 C-99.21331722 375.82787076 -96.68811745 367.92290019 -94.15911865 360.01904297 C-92.2864561 354.16614276 -90.41548925 348.31270168 -88.54577065 342.4588604 C-87.91824598 340.49520539 -87.28963433 338.53189783 -86.66093445 336.56861877 C-81.46362496 320.31655756 -76.37551752 304.02970145 -71.265625 287.75 C-72.02670154 287.75368717 -72.78777807 287.75737434 -73.57191753 287.76117325 C-92.136164 287.84971569 -110.70036803 287.91580242 -129.264781 287.95724869 C-138.24259742 287.97782728 -147.22027242 288.00585735 -156.19799805 288.05175781 C-164.02784348 288.09177024 -171.85758645 288.11746695 -179.68753129 288.12635398 C-183.82906529 288.13154448 -187.97030625 288.1436445 -192.11174583 288.17292023 C-196.01960789 288.20031779 -199.92705963 288.20839659 -203.83500862 288.20243073 C-205.2599092 288.2035202 -206.68482527 288.21132814 -208.10964203 288.2268219 C-222.11919869 288.37153462 -235.60470999 285.61431422 -246.26171875 275.9375 C-254.71960131 266.9157586 -258.8359211 255.71858732 -258.51171875 243.41796875 C-257.07097285 227.79845365 -249.33392457 218.18661931 -238.328125 207.625 C-230.86922117 200.48113434 -230.86922117 200.48113434 -223.88671875 192.8828125 C-218.19132403 186.20580424 -211.75480949 180.18651808 -205.51757812 174.02246094 C-197.92121185 166.59441132 -197.92121185 166.59441132 -190.765625 158.75 C-185.11750559 152.11415527 -178.71061109 146.14283821 -172.51757812 140.02246094 C-164.92121185 132.59441132 -164.92121185 132.59441132 -157.765625 124.75 C-152.11750559 118.11415527 -145.71061109 112.14283821 -139.51757812 106.02246094 C-131.92121185 98.59441132 -131.92121185 98.59441132 -124.765625 90.75 C-119.11750559 84.11415527 -112.71061109 78.14283821 -106.51757812 72.02246094 C-98.92121185 64.59441132 -98.92121185 64.59441132 -91.765625 56.75 C-86.11750559 50.11415527 -79.71061109 44.14283821 -73.51757812 38.02246094 C-64.9734325 29.57250307 -64.9734325 29.57250307 -56.92529297 20.65429688 C-53.55256629 16.78444278 -49.93377058 13.15128666 -46.328125 9.5 C-45.56822266 8.71109375 -44.80832031 7.9221875 -44.02539062 7.109375 C-31.21634962 -5.84186714 -16.08688487 -8.87552269 0 0 Z M-44.265625 68.75 C-45.29000955 69.74636187 -46.30985213 70.74739287 -47.328125 71.75 C-47.89660156 72.306875 -48.46507812 72.86375 -49.05078125 73.4375 C-50.84571863 75.31157924 -52.51913646 77.21349402 -54.19921875 79.1875 C-60.09521273 85.96973778 -66.62576099 92.16457015 -73.01367188 98.47753906 C-80.61003815 105.90558868 -80.61003815 105.90558868 -87.765625 113.75 C-93.41374441 120.38584473 -99.82063891 126.35716179 -106.01367188 132.47753906 C-113.61003815 139.90558868 -113.61003815 139.90558868 -120.765625 147.75 C-126.41374441 154.38584473 -132.82063891 160.35716179 -139.01367188 166.47753906 C-146.61003815 173.90558868 -146.61003815 173.90558868 -153.765625 181.75 C-159.41374441 188.38584473 -165.82063891 194.35716179 -172.01367188 200.47753906 C-177.65501425 206.05859713 -183.23770806 211.59763827 -188.38330078 217.64501953 C-192.91513186 222.71291156 -197.86706751 227.41134943 -202.703125 232.1875 C-204.89216211 234.35002246 -207.07790284 236.51580037 -209.26171875 238.68359375 C-210.01623573 239.42566322 -210.01623573 239.42566322 -210.78599548 240.182724 C-211.96481475 241.35303952 -213.11813758 242.54894799 -214.265625 243.75 C-214.265625 244.08 -214.265625 244.41 -214.265625 244.75 C-213.5097022 244.75146656 -212.75377939 244.75293312 -211.97494984 244.75444412 C-193.53572765 244.79158306 -175.09669381 244.85069131 -156.65762043 244.93390274 C-147.74041272 244.97362074 -138.82329234 245.00604986 -129.90600586 245.02099609 C-122.12879872 245.03405029 -114.35178431 245.06111045 -106.57468575 245.10461307 C-102.46116999 245.12714363 -98.34789118 245.14291577 -94.23430824 245.14188385 C-90.35259967 245.14113222 -86.47141323 245.15928195 -82.58983994 245.19116783 C-81.17466175 245.19960011 -79.75942454 245.20146281 -78.34423256 245.19580269 C-64.46423497 245.14773683 -51.24009286 247.90490338 -40.52734375 257.26953125 C-31.74135639 266.60038604 -28.79353582 277.8978171 -28.93405151 290.34762573 C-29.15187584 294.72826423 -30.14860831 298.60147065 -31.46923828 302.76611328 C-31.69337969 303.49912218 -31.9175211 304.23213108 -32.14845467 304.98735237 C-32.84283466 307.24529158 -33.55198442 309.49808182 -34.265625 311.75 C-34.47834801 312.42660423 -34.69107101 313.10320847 -34.91024017 313.80031586 C-36.15884629 317.76607975 -37.43073786 321.72395946 -38.71395493 325.67864609 C-39.40601736 327.81377851 -40.09407891 329.95016449 -40.78103638 332.08694458 C-42.72913007 338.14636328 -44.67909134 344.20514256 -46.64355469 350.25927734 C-47.85645546 353.99819642 -49.06076269 357.73978711 -50.25937271 361.4833107 C-50.71469083 362.89975101 -51.17322976 364.31516023 -51.63506699 365.72948837 C-52.27512316 367.69067825 -52.90418162 369.65507602 -53.53076172 371.62060547 C-53.89096405 372.73515106 -54.25116638 373.84969666 -54.62228394 374.99801636 C-55.53455263 377.81635082 -55.53455263 377.81635082 -54.265625 380.75 C-53.24124045 379.75363813 -52.22139787 378.75260713 -51.203125 377.75 C-50.35041016 376.9146875 -50.35041016 376.9146875 -49.48046875 376.0625 C-47.68553137 374.18842076 -46.01211354 372.28650598 -44.33203125 370.3125 C-38.43603727 363.53026222 -31.90548901 357.33542985 -25.51757812 351.02246094 C-17.92121185 343.59441132 -17.92121185 343.59441132 -10.765625 335.75 C-5.11750559 329.11415527 1.28938891 323.14283821 7.48242188 317.02246094 C15.07878815 309.59441132 15.07878815 309.59441132 22.234375 301.75 C27.88249441 295.11415527 34.28938891 289.14283821 40.48242188 283.02246094 C48.07878815 275.59441132 48.07878815 275.59441132 55.234375 267.75 C60.88249441 261.11415527 67.28938891 255.14283821 73.48242188 249.02246094 C79.12376425 243.44140287 84.70645806 237.90236173 89.85205078 231.85498047 C94.38388186 226.78708844 99.33581751 222.08865057 104.171875 217.3125 C106.36091211 215.14997754 108.54665284 212.98419963 110.73046875 210.81640625 C111.23348007 210.32169327 111.73649139 209.82698029 112.25474548 209.317276 C113.43356475 208.14696048 114.58688758 206.95105201 115.734375 205.75 C115.734375 205.42 115.734375 205.09 115.734375 204.75 C114.97660861 204.74761165 114.21884222 204.74522329 113.43811321 204.74276257 C94.96623281 204.68352447 76.49448503 204.60791824 58.02274609 204.51428509 C49.08980174 204.46939524 40.15689666 204.42996499 31.22387695 204.40356445 C23.43426283 204.38052908 15.64477367 204.34706953 7.85525876 204.30129844 C3.73401995 204.27744065 -0.38709567 204.25866326 -4.50840187 204.25238609 C-8.39495368 204.24630133 -12.28119061 204.22618055 -16.16762543 204.19572449 C-17.58687076 204.18699822 -19.00615735 204.18321034 -20.42542839 204.18499184 C-34.9276478 204.19743743 -47.62845312 201.50013813 -58.63671875 191.5390625 C-61.8583907 188.00063143 -64.11358824 184.00190294 -66.265625 179.75 C-66.77996094 178.73679688 -66.77996094 178.73679688 -67.3046875 177.703125 C-74.37794422 160.64798263 -66.18699259 141.9738346 -60.765625 125.75 C-59.96385147 123.29371648 -59.16435862 120.8366873 -58.3671875 118.37890625 C-55.62320666 109.941502 -52.84766545 101.51457636 -50.05175781 93.09423828 C-48.8961238 89.60711969 -47.75171881 86.11649091 -46.609375 82.625 C-46.07950989 81.04199097 -46.07950989 81.04199097 -45.53894043 79.42700195 C-45.22380493 78.45851318 -44.90866943 77.49002441 -44.58398438 76.4921875 C-44.3040564 75.6451123 -44.02412842 74.79803711 -43.73571777 73.92529297 C-43.03700275 71.58672947 -43.03700275 71.58672947 -44.265625 68.75 Z " fill="#23C45E" transform="translate(299.265625,25.25)"/>
<path d="M0 0 C4.01412909 1.33804303 4.73005954 3.52415367 7 7 C7.99 7.66 8.98 8.32 10 9 C10.70253906 9.53496094 11.40507812 10.06992188 12.12890625 10.62109375 C12.93199219 11.22050781 13.73507813 11.81992188 14.5625 12.4375 C15.74005859 13.33275391 15.74005859 13.33275391 16.94140625 14.24609375 C25.77474239 19.31144231 34.85024796 19.44484454 44.81298828 19.43237305 C46.28243322 19.44140623 47.75187067 19.45173723 49.22129822 19.46325684 C53.18134388 19.49067049 57.14124596 19.5000899 61.10137415 19.50611091 C65.25073516 19.51553559 69.39999062 19.54174208 73.54928589 19.56611633 C81.39356853 19.60967291 89.23783056 19.63828629 97.08219707 19.66143972 C106.018233 19.68854973 114.95416219 19.73245751 123.8901217 19.77772844 C142.26002466 19.87041931 160.62995586 19.94217103 179 20 C179 20.66 179 21.32 179 22 C160.02358352 22.07020718 141.04719355 22.12304541 122.07067394 22.15543652 C113.25874161 22.17087873 104.44689017 22.19191744 95.63500977 22.22631836 C87.95094522 22.25630197 80.26693928 22.27559422 72.58281785 22.28226548 C68.51741515 22.28616262 64.45218006 22.29526572 60.38683128 22.31719017 C56.55289125 22.33769725 52.71918636 22.34380539 48.88519669 22.33932304 C47.48526668 22.34014194 46.08532802 22.34602243 44.68544579 22.35761642 C29.38256701 22.47803789 17.20086596 19.26488326 5.73046875 8.84765625 C3.18791162 6.13291693 1.63227192 3.33255518 0 0 Z " fill="#31B166" transform="translate(234,208)"/>
<path d="M0 0 C0.66 0.33 1.32 0.66 2 1 C1.50371094 1.4846875 1.00742188 1.969375 0.49609375 2.46875 C-0.18324219 3.1390625 -0.86257812 3.809375 -1.5625 4.5 C-2.55443359 5.47453125 -2.55443359 5.47453125 -3.56640625 6.46875 C-5.50765406 8.487897 -7.33393473 10.53301908 -9.15625 12.65625 C-13.51415119 17.67419079 -18.21680504 22.32597351 -22.9375 27 C-23.81212891 27.87011719 -24.68675781 28.74023438 -25.58789062 29.63671875 C-27.72297449 31.76013549 -29.86037205 33.88116378 -32 36 C-32.33 34.68 -32.66 33.36 -33 32 C-32.01 31.67 -31.02 31.34 -30 31 C-29.67 30.01 -29.34 29.02 -29 28 C-28.34 28 -27.68 28 -27 28 C-27 27.34 -27 26.68 -27 26 C-26.278125 25.608125 -25.55625 25.21625 -24.8125 24.8125 C-21.61661434 22.75292924 -20.20342961 20.69270348 -18.2109375 17.5234375 C-17 16 -17 16 -14 15 C-13.34 14.01 -12.68 13.02 -12 12 C-11 11 -10 10 -9 9 C-8.484375 8.278125 -7.96875 7.55625 -7.4375 6.8125 C-6.963125 6.214375 -6.48875 5.61625 -6 5 C-5.34 5 -4.68 5 -4 5 C-4.33 4.01 -4.66 3.02 -5 2 C-4.360625 1.855625 -3.72125 1.71125 -3.0625 1.5625 C-1.02454854 1.18992819 -1.02454854 1.18992819 0 0 Z " fill="#35B467" transform="translate(189,160)"/>
<path d="M0 0 C1.67196079 4.64433551 0.71388423 9.19429283 -1.0625 13.6875 C-3.64919491 22.82715535 -2.14324038 31.57494932 2 40 C2.84111328 41.051875 2.84111328 41.051875 3.69921875 42.125 C4.34310547 43.053125 4.34310547 43.053125 5 44 C4.67 44.99 4.34 45.98 4 47 C-3.14768204 36.37735792 -6.83840273 25.70533388 -4.3984375 12.82421875 C-3.30555895 8.30367567 -2.23539243 4.10145916 0 0 Z " fill="#35B466" transform="translate(46,250)"/>
<path d="M0 0 C0.33 0 0.66 0 1 0 C1.04241723 2.33294775 1.04092937 4.66702567 1 7 C0.67 7.33 0.34 7.66 0 8 C-0.53455759 16.63516109 -0.88947901 25.08213201 3 33 C4.32630188 33.36029461 5.66021737 33.6936156 7 34 C8.35278115 35.98689731 9.68568305 37.98745218 11 40 C13.10039331 41.38868516 13.10039331 41.38868516 15 42 C15 42.66 15 43.32 15 44 C6.59069651 41.11681023 2.93360271 35.64140949 -1 28 C-4.77158764 18.39959509 -3.0477618 9.54239705 0 0 Z " fill="#35B468" transform="translate(190,432)"/>
<path d="M0 0 C0.78375 0.04125 1.5675 0.0825 2.375 0.125 C0.43280923 3.58625202 -1.59166141 6.33219483 -4.41796875 9.11328125 C-5.13017578 9.81904297 -5.84238281 10.52480469 -6.57617188 11.25195312 C-7.31416016 11.97318359 -8.05214844 12.69441406 -8.8125 13.4375 C-9.56208984 14.17806641 -10.31167969 14.91863281 -11.08398438 15.68164062 C-12.92653282 17.50071712 -14.77359662 19.31494389 -16.625 21.125 C-16.955 20.465 -17.285 19.805 -17.625 19.125 C-18.285 18.795 -18.945 18.465 -19.625 18.125 C-15.875 15.125 -15.875 15.125 -13.625 15.125 C-13.3775 14.34125 -13.13 13.5575 -12.875 12.75 C-11.47110901 9.80182892 -10.61824263 9.2225223 -7.625 8.125 C-7.625 7.465 -7.625 6.805 -7.625 6.125 C-6.965 6.125 -6.305 6.125 -5.625 6.125 C-5.50125 5.50625 -5.3775 4.8875 -5.25 4.25 C-4.29660357 1.00845214 -3.38899251 0.1613806 0 0 Z " fill="#2FBA64" transform="translate(326.625,378.875)"/>
<path d="M0 0 C1.32 0.33 2.64 0.66 4 1 C4 5.33174693 1.34177417 7.22353653 -1.5 10.1875 C-2.28697266 11.02571289 -2.28697266 11.02571289 -3.08984375 11.88085938 C-4.38661613 13.26015364 -5.69246259 14.63090644 -7 16 C-7.66 15.01 -8.32 14.02 -9 13 C-8.34 13 -7.68 13 -7 13 C-7.33 11.35 -7.66 9.7 -8 8 C-7.50628906 7.59007812 -7.01257813 7.18015625 -6.50390625 6.7578125 C-5.86324219 6.21898437 -5.22257812 5.68015625 -4.5625 5.125 C-3.92441406 4.59132813 -3.28632813 4.05765625 -2.62890625 3.5078125 C-0.89194996 2.0777243 -0.89194996 2.0777243 0 0 Z " fill="#2ABD61" transform="translate(426,272)"/>
<path d="M0 0 C0 0.66 0 1.32 0 2 C-4.62 2.66 -9.24 3.32 -14 4 C-14.33 5.32 -14.66 6.64 -15 8 C-16.051875 7.896875 -17.10375 7.79375 -18.1875 7.6875 C-22.15521993 7.63931296 -22.15521993 7.63931296 -24.9375 10.5 C-25.618125 11.325 -26.29875 12.15 -27 13 C-27.66 12.67 -28.32 12.34 -29 12 C-20.84407429 3.51454193 -11.91841232 -0.91680095 0 0 Z " fill="#34B765" transform="translate(285,20)"/>
<path d="M0 0 C4.01412909 1.33804303 4.73005954 3.52415367 7 7 C7.99 7.66 8.98 8.32 10 9 C10.70253906 9.53496094 11.40507812 10.06992188 12.12890625 10.62109375 C17.2978799 14.47915595 21.76663966 16.93015493 28.06640625 18.39453125 C28.70449219 18.59433594 29.34257812 18.79414063 30 19 C30.33 19.66 30.66 20.32 31 21 C21.01774332 20.62331107 12.89434391 15.46735846 5.66015625 8.8125 C3.176392 6.10081385 1.61434415 3.29595263 0 0 Z " fill="#38B269" transform="translate(234,208)"/>
<path d="M0 0 C0.66 0.99 1.32 1.98 2 3 C1.25556641 3.52787109 1.25556641 3.52787109 0.49609375 4.06640625 C-4.4662194 7.67279322 -8.76362488 11.57487549 -13 16 C-17.33333333 20.33333333 -21.66666667 24.66666667 -26 29 C-26 26 -26 26 -23.61328125 23.27270508 C-22.52068881 22.18058824 -21.4198246 21.09670796 -20.3125 20.01953125 C-19.44685425 19.16025276 -19.44685425 19.16025276 -18.5637207 18.28361511 C-16.71605624 16.45276435 -14.85824193 14.63260815 -13 12.8125 C-11.74671407 11.57425738 -10.49410099 10.33533332 -9.2421875 9.09570312 C-6.16921472 6.05583532 -3.08709758 3.02551984 0 0 Z " fill="#3CB46A" transform="translate(100,193)"/>
<path d="M0 0 C0 3.21534057 -0.26476072 4.35582586 -2 7 C-3.14903809 7.68243774 -3.14903809 7.68243774 -4.32128906 8.37866211 C-7.01438621 10.00870751 -8.95855455 11.71470513 -11.171875 13.94140625 C-11.91824219 14.68970703 -12.66460937 15.43800781 -13.43359375 16.20898438 C-14.58021484 17.37397461 -14.58021484 17.37397461 -15.75 18.5625 C-16.52988281 19.34302734 -17.30976563 20.12355469 -18.11328125 20.92773438 C-22.01529219 24.62093815 -22.01529219 24.62093815 -25 29 C-25.66 28.67 -26.32 28.34 -27 28 C-21.51548048 21.49539895 -15.60420805 15.48516218 -9.5625 9.5 C-8.64017578 8.5821875 -7.71785156 7.664375 -6.76757812 6.71875 C-4.51400101 4.47684945 -2.25810925 2.237334 0 0 Z " fill="#40AF69" transform="translate(198,92)"/>
<path d="M0 0 C0 3 0 3 -1.57421875 4.8671875 C-2.27160156 5.52976562 -2.96898437 6.19234375 -3.6875 6.875 C-4.4196875 7.58140625 -5.151875 8.2878125 -5.90625 9.015625 C-6.5971875 9.67046875 -7.288125 10.3253125 -8 11 C-10.73665651 13.67301333 -13.29769959 16.33219658 -15.6875 19.3125 C-16.8321875 20.6428125 -16.8321875 20.6428125 -18 22 C-18.66 22 -19.32 22 -20 22 C-20 22.66 -20 23.32 -20 24 C-21.32 24.33 -22.64 24.66 -24 25 C-19.18132753 19.19108254 -13.98743592 13.86934448 -8.625 8.5625 C-7.79355469 7.73556641 -6.96210938 6.90863281 -6.10546875 6.05664062 C-4.0725896 4.03544469 -2.03740037 2.01663665 0 0 Z " fill="#38B46A" transform="translate(276,373)"/>
<path d="M0 0 C1.32 0.66 2.64 1.32 4 2 C-1.61 7.61 -7.22 13.22 -13 19 C-13 15.8525787 -12.399734 14.71198463 -11 12 C-11 11.34 -11 10.68 -11 10 C-8.09451118 7.95830515 -6.59857954 7 -3 7 C-3 6.01 -3 5.02 -3 4 C-1.68 3.67 -0.36 3.34 1 3 C0.67 2.01 0.34 1.02 0 0 Z " fill="#33B566" transform="translate(350,353)"/>
<path d="M0 0 C1.65 0.33 3.3 0.66 5 1 C0.88380164 5.91935902 -3.40410362 10.52647956 -8 15 C-9.0625 13.1875 -9.0625 13.1875 -10 11 C-9.67 10.01 -9.34 9.02 -9 8 C-8.67 8.66 -8.34 9.32 -8 10 C-7.01 10 -6.02 10 -5 10 C-5 9.01 -5 8.02 -5 7 C-4.01 6.67 -3.02 6.34 -2 6 C-0.77479736 2.99152582 -0.77479736 2.99152582 0 0 Z " fill="#31B865" transform="translate(278,426)"/>
<path d="M0 0 C0 3.38755275 -0.43021201 5.00313201 -2 8 C-5.41587745 11.18815229 -8.94572781 13.6989266 -13 16 C-13.99 16.66 -14.98 17.32 -16 18 C-14.6415798 14.95667235 -13.11536976 12.87690849 -10.7421875 10.546875 C-10.11699219 9.928125 -9.49179687 9.309375 -8.84765625 8.671875 C-8.19667969 8.03765625 -7.54570312 7.4034375 -6.875 6.75 C-6.21628906 6.1003125 -5.55757813 5.450625 -4.87890625 4.78125 C-3.25703357 3.18288273 -1.6306719 1.58938103 0 0 Z " fill="#36B567" transform="translate(367,279)"/>
<path d="M0 0 C0.99 0.33 1.98 0.66 3 1 C-2.61 6.61 -8.22 12.22 -14 18 C-14 13.90060335 -12.47701899 12.21343005 -10 9 C-8.34051852 7.98812105 -6.67419438 6.9873454 -5 6 C-3.94895617 4.36504293 -2.94011682 2.70116376 -2 1 C-1.34 0.67 -0.68 0.34 0 0 Z " fill="#3AB26A" transform="translate(391,313)"/>
<path d="M0 0 C0.66 0.33 1.32 0.66 2 1 C1.52590352 5.31730413 -1.03396703 7.33647461 -4.0625 10.25 C-4.98160156 11.14203125 -5.90070313 12.0340625 -6.84765625 12.953125 C-7.55792969 13.62859375 -8.26820313 14.3040625 -9 15 C-9.33 14.01 -9.66 13.02 -10 12 C-8.1875 9.5 -8.1875 9.5 -6 7 C-5.34 6.01 -4.68 5.02 -4 4 C-3.01 4 -2.02 4 -1 4 C-0.67 2.68 -0.34 1.36 0 0 Z " fill="#30B760" transform="translate(246,99)"/>
<path d="M0 0 C0 4.32869872 -2.28849366 6.83223057 -5 10 C-6.96485639 11.86185988 -8.98904048 13.61580479 -11.0625 15.35546875 C-13.52285277 17.44379237 -15.75464579 19.68447847 -18 22 C-18.66 21.67 -19.32 21.34 -20 21 C-19.57178955 20.57702637 -19.1435791 20.15405273 -18.70239258 19.71826172 C-16.73638357 17.77322701 -14.77442705 15.82415171 -12.8125 13.875 C-12.13896484 13.20984375 -11.46542969 12.5446875 -10.77148438 11.859375 C-6.95260919 8.05912847 -3.37156902 4.20300449 0 0 Z " fill="#38B368" transform="translate(388,257)"/>
<path d="M0 0 C0 3.76120097 -1.1245288 5.06182092 -3.25 8.125 C-3.85328125 9.01445313 -4.4565625 9.90390625 -5.078125 10.8203125 C-7.18479723 13.2095871 -7.95798147 13.51657845 -11 14 C-12.3479743 14.63654342 -13.68596724 15.29605388 -15 16 C-10.30233025 10.33870569 -5.25276628 5.14771096 0 0 Z " fill="#38B366" transform="translate(255,33)"/>
<path d="M0 0 C1.65 0 3.3 0 5 0 C1.20962911 5.47035213 -2.75027653 9.89962427 -8 14 C-7.29599947 11.07992825 -6.66176973 8.53638538 -5 6 C-2.875 5.25 -2.875 5.25 -1 5 C-0.67 3.35 -0.34 1.7 0 0 Z " fill="#31B665" transform="translate(293,411)"/>
<path d="M0 0 C0.33 0 0.66 0 1 0 C1.29341888 5.67276511 1.00559652 8.99067246 -2 14 C-1.34 14.33 -0.68 14.66 0 15 C-0.66 15 -1.32 15 -2 15 C-2.28875 15.804375 -2.5775 16.60875 -2.875 17.4375 C-4 20 -4 20 -6 21 C-4.11380178 13.96354423 -2.13072305 6.96640656 0 0 Z " fill="#31B869" transform="translate(214,357)"/>
<path d="M0 0 C0.33 0.99 0.66 1.98 1 3 C0 4 -1 5 -2 6 C-3.1446875 7.175625 -3.1446875 7.175625 -4.3125 8.375 C-7.09944104 11.09712845 -9.98039127 13.54217894 -13 16 C-13.66 15.67 -14.32 15.34 -15 15 C-10.05 10.05 -5.1 5.1 0 0 Z " fill="#37B66B" transform="translate(224,65)"/>
<path d="M0 0 C0.66 0.66 1.32 1.32 2 2 C-1.63 5.96 -5.26 9.92 -9 14 C-9.66 12.68 -10.32 11.36 -11 10 C-10.01 9.34 -9.02 8.68 -8 8 C-7.67 7.34 -7.34 6.68 -7 6 C-6.01 6 -5.02 6 -4 6 C-3.34 4.68 -2.68 3.36 -2 2 C-1.34 2 -0.68 2 0 2 C0 1.34 0 0.68 0 0 Z " fill="#30B967" transform="translate(365,339)"/>
<path d="M0 0 C-0.93274109 1.12894876 -1.87140122 2.25300876 -2.8125 3.375 C-3.33457031 4.00148437 -3.85664063 4.62796875 -4.39453125 5.2734375 C-6 7 -6 7 -9 9 C-9.33 7.35 -9.66 5.7 -10 4 C-6.58908673 0.88145073 -4.68377325 -0.53528837 0 0 Z " fill="#30BA62" transform="translate(203,148)"/>
<path d="M0 0 C0.99 0 1.98 0 3 0 C-0.07517084 11.52164009 -0.07517084 11.52164009 -2 17 C-2.33 17 -2.66 17 -3 17 C-2.88556397 14.9160597 -2.75804453 12.83283507 -2.625 10.75 C-2.55539062 9.58984375 -2.48578125 8.4296875 -2.4140625 7.234375 C-2.03751692 4.29305666 -1.5225877 2.50050989 0 0 Z " fill="#2CBA65" transform="translate(292,113)"/>
<path d="M0 0 C0.66 0 1.32 0 2 0 C0.75971762 6.17222879 -0.89603589 12.06682122 -3 18 C-5 15 -5 15 -4.6875 12.4375 C-4 10 -4 10 -3 8 C-2.34 8 -1.68 8 -1 8 C-0.67 5.36 -0.34 2.72 0 0 Z " fill="#2EB866" transform="translate(255,363)"/>
<path d="M0 0 C0.66 0.33 1.32 0.66 2 1 C-0.97 3.97 -3.94 6.94 -7 10 C-9 7 -9 7 -9 5 C-7.68 5 -6.36 5 -5 5 C-5 4.01 -5 3.02 -5 2 C-2.625 0.9375 -2.625 0.9375 0 0 Z " fill="#2EB963" transform="translate(307,400)"/>
<path d="M0 0 C0.33 0 0.66 0 1 0 C1.47444089 8.22364217 1.47444089 8.22364217 -0.375 11.25 C-0.91125 11.8275 -1.4475 12.405 -2 13 C-2.71162443 14.64797236 -3.39031953 16.31165408 -4 18 C-5.35814777 13.9255567 -3.94745762 11.18531884 -2.5625 7.3125 C-2.31951172 6.61060547 -2.07652344 5.90871094 -1.82617188 5.18554688 C-1.2255056 3.45421468 -0.61380281 1.72671863 0 0 Z " fill="#32B769" transform="translate(196,414)"/>
<path d="M0 0 C-0.25 1.875 -0.25 1.875 -1 4 C-3.0625 5.25 -3.0625 5.25 -5 6 C-5 6.66 -5 7.32 -5 8 C-5.66 8 -6.32 8 -7 8 C-7 8.66 -7 9.32 -7 10 C-8.32 10.33 -9.64 10.66 -11 11 C-10.06558465 9.72689688 -9.12732889 8.456612 -8.1875 7.1875 C-7.66542969 6.47980469 -7.14335937 5.77210938 -6.60546875 5.04296875 C-2.64244742 0 -2.64244742 0 0 0 Z " fill="#2FB964" transform="translate(144,149)"/>
<path d="M0 0 C6.12779751 1.67493132 10.42225856 3.53963655 15 8 C15 8.33 15 8.66 15 9 C13.35 9 11.7 9 10 9 C9.835 8.401875 9.67 7.80375 9.5 7.1875 C7.18723796 3.81472202 3.80108663 3.1668452 0 2 C0 1.34 0 0.68 0 0 Z " fill="#33B467" transform="translate(288,21)"/>
<path d="M0 0 C0 3.01082766 -0.00485799 5.15673711 -1 8 C-3.9375 9.75 -3.9375 9.75 -7 11 C-7.99 11.495 -7.99 11.495 -9 12 C-7.55575365 8.76138697 -5.74227753 6.38030837 -3.375 3.75 C-2.74335937 3.04359375 -2.11171875 2.3371875 -1.4609375 1.609375 C-0.97882812 1.07828125 -0.49671875 0.5471875 0 0 Z " fill="#36B56B" transform="translate(56,238)"/>
<path d="M0 0 C0.99 0.99 1.98 1.98 3 3 C2.34 4.98 1.68 6.96 1 9 C0.34 9 -0.32 9 -1 9 C-1.66 10.32 -2.32 11.64 -3 13 C-2.68991116 11.39536551 -2.37683713 9.79130769 -2.0625 8.1875 C-1.88847656 7.29417969 -1.71445313 6.40085937 -1.53515625 5.48046875 C-1 3 -1 3 0 0 Z " fill="#2CBB60" transform="translate(252,106)"/>
<path d="M0 0 C1 3 1 3 0 6 C-0.99 6 -1.98 6 -3 6 C-2.67 6.66 -2.34 7.32 -2 8 C-3.32 8 -4.64 8 -6 8 C-6.33 8.66 -6.66 9.32 -7 10 C-7 7 -7 7 -5.46875 5.17578125 C-4.8190625 4.56089844 -4.169375 3.94601562 -3.5 3.3125 C-2.8503125 2.68988281 -2.200625 2.06726563 -1.53125 1.42578125 C-0.77328125 0.72001953 -0.77328125 0.72001953 0 0 Z " fill="#2BC063" transform="translate(252,398)"/>
<path d="M0 0 C1.32 0.66 2.64 1.32 4 2 C1.03 4.475 1.03 4.475 -2 7 C-2.6875 5.1875 -2.6875 5.1875 -3 3 C-1.5625 1.25 -1.5625 1.25 0 0 Z " fill="#30B862" transform="translate(412,289)"/>
<path d="M0 0 C0.66 0.33 1.32 0.66 2 1 C0.71451591 2.33929505 -0.57858155 3.67128643 -1.875 5 C-2.59429687 5.7425 -3.31359375 6.485 -4.0546875 7.25 C-6 9 -6 9 -8 9 C-7.34 7.68 -6.68 6.36 -6 5 C-5.34 5 -4.68 5 -4 5 C-4.33 4.01 -4.66 3.02 -5 2 C-4.360625 1.855625 -3.72125 1.71125 -3.0625 1.5625 C-1.02454854 1.18992819 -1.02454854 1.18992819 0 0 Z " fill="#2DBC65" transform="translate(189,160)"/>
<path d="M0 0 C0.33 0 0.66 0 1 0 C1.33 2.64 1.66 5.28 2 8 C1.34 8 0.68 8 0 8 C-0.33 9.32 -0.66 10.64 -1 12 C-1.66 12 -2.32 12 -3 12 C-2.01 8.04 -1.02 4.08 0 0 Z " fill="#2FB667" transform="translate(244,131)"/>
<path d="M0 0 C1.39195915 4.17587745 -0.17676781 6.13474776 -2 10 C-2.5534764 7.92446352 -3 6.15634036 -3 4 C-3.66 3.67 -4.32 3.34 -5 3 C-3.35 2.67 -1.7 2.34 0 2 C0 1.34 0 0.68 0 0 Z " fill="#33B866" transform="translate(456,240)"/>
<path d="M0 0 C1.65 0 3.3 0 5 0 C4.06725891 1.12894876 3.12859878 2.25300876 2.1875 3.375 C1.66542969 4.00148437 1.14335937 4.62796875 0.60546875 5.2734375 C-1 7 -1 7 -4 9 C-4 8.01 -4 7.02 -4 6 C-3.01 5.34 -2.02 4.68 -1 4 C-0.27617533 1.94074861 -0.27617533 1.94074861 0 0 Z " fill="#36B465" transform="translate(129,219)"/>
<path d="M0 0 C1.32 0.33 2.64 0.66 4 1 C0.535 3.97 0.535 3.97 -3 7 C-2 3 -2 3 0 0 Z " fill="#28BE65" transform="translate(332,372)"/>
<path d="M0 0 C3.94727588 -0.17942163 6.5980513 -0.09350689 10 2 C10 2.66 10 3.32 10 4 C5.78087253 3.5205537 3.20336822 2.83374881 0 0 Z " fill="#31B768" transform="translate(63,307)"/>
<path d="M0 0 C0.33 0 0.66 0 1 0 C1.17835515 4.54805635 0.99785435 7.8794254 -1 12 C-1.66 11.67 -2.32 11.34 -3 11 C-2.01 7.37 -1.02 3.74 0 0 Z " fill="#32B667" transform="translate(240,144)"/>
<path d="M0 0 C0.66 0.33 1.32 0.66 2 1 C-0.31 3.31 -2.62 5.62 -5 8 C-5.33 7.01 -5.66 6.02 -6 5 C-4.60210322 2.20420645 -2.7371003 1.40192942 0 0 Z " fill="#38B167" transform="translate(440,263)"/>
<path d="M0 0 C0.99 0.33 1.98 0.66 3 1 C2.0479279 2.00596297 1.08812654 3.00461563 0.125 4 C-0.40867187 4.556875 -0.94234375 5.11375 -1.4921875 5.6875 C-3 7 -3 7 -5 7 C-4.34 5.35 -3.68 3.7 -3 2 C-2.01 2 -1.02 2 0 2 C0 1.34 0 0.68 0 0 Z " fill="#2BB862" transform="translate(108,243)"/>
<path d="M0 0 C0.99 0.33 1.98 0.66 3 1 C0.59563974 4.60654039 -0.94679607 4.85452932 -5 6 C-3.35 4.02 -1.7 2.04 0 0 Z " fill="#2FBD64" transform="translate(170,121)"/>
</svg>
